<mxfile host="65bd71144e">
    <diagram id="Ak6OZtN7oj5A9qNA5FTk" name="Page-1">
        <mxGraphModel dx="1185" dy="1003" grid="1" gridSize="10" guides="1" tooltips="1" connect="1" arrows="1" fold="1" page="1" pageScale="1" pageWidth="1200" pageHeight="1600" math="0" shadow="0">
            <root>
                <mxCell id="0"/>
                <mxCell id="1" parent="0"/>
                <mxCell id="2" value="&lt;font style=&quot;font-size: 18px;&quot;&gt;AR文化観光&lt;/font&gt;" style="rounded=0;whiteSpace=wrap;html=1;" parent="1" vertex="1">
                    <mxGeometry x="560" y="230" width="120" height="60" as="geometry"/>
                </mxCell>
                <mxCell id="41" value="&lt;span style=&quot;font-size: 18px;&quot;&gt;需求与研究动机&lt;/span&gt;" style="rounded=0;whiteSpace=wrap;html=1;" parent="1" vertex="1">
                    <mxGeometry x="780" y="430" width="120" height="60" as="geometry"/>
                </mxCell>
                <mxCell id="42" value="&lt;span style=&quot;font-size: 18px;&quot;&gt;研究目的&lt;/span&gt;" style="rounded=0;whiteSpace=wrap;html=1;" parent="1" vertex="1">
                    <mxGeometry x="780" y="610" width="120" height="60" as="geometry"/>
                </mxCell>
                <mxCell id="43" value="&lt;span style=&quot;font-size: 18px;&quot;&gt;文化观光行业现状分析&lt;/span&gt;" style="rounded=0;whiteSpace=wrap;html=1;" parent="1" vertex="1">
                    <mxGeometry x="780" y="350" width="120" height="60" as="geometry"/>
                </mxCell>
                <mxCell id="44" value="&lt;span style=&quot;font-size: 18px;&quot;&gt;相关研究&lt;/span&gt;" style="rounded=0;whiteSpace=wrap;html=1;" parent="1" vertex="1">
                    <mxGeometry x="780" y="520" width="120" height="60" as="geometry"/>
                </mxCell>
                <mxCell id="45" value="&lt;span style=&quot;font-size: 18px;&quot;&gt;研究手段&lt;/span&gt;" style="rounded=0;whiteSpace=wrap;html=1;" parent="1" vertex="1">
                    <mxGeometry x="780" y="700" width="120" height="60" as="geometry"/>
                </mxCell>
                <mxCell id="46" value="&lt;span style=&quot;font-size: 18px;&quot;&gt;实验对象和假设&lt;/span&gt;" style="rounded=0;whiteSpace=wrap;html=1;" parent="1" vertex="1">
                    <mxGeometry x="780" y="790" width="120" height="60" as="geometry"/>
                </mxCell>
                <mxCell id="47" value="&lt;span style=&quot;font-size: 18px;&quot;&gt;验证假设&lt;/span&gt;" style="rounded=0;whiteSpace=wrap;html=1;" parent="1" vertex="1">
                    <mxGeometry x="780" y="970" width="120" height="60" as="geometry"/>
                </mxCell>
                <mxCell id="49" value="&lt;span style=&quot;font-size: 18px;&quot;&gt;未来工作&lt;/span&gt;" style="rounded=0;whiteSpace=wrap;html=1;" parent="1" vertex="1">
                    <mxGeometry x="780" y="1060" width="120" height="60" as="geometry"/>
                </mxCell>
                <mxCell id="50" value="&lt;span style=&quot;font-size: 18px;&quot;&gt;执行实验&lt;/span&gt;" style="rounded=0;whiteSpace=wrap;html=1;" parent="1" vertex="1">
                    <mxGeometry x="780" y="880" width="120" height="60" as="geometry"/>
                </mxCell>
                <mxCell id="51" value="&lt;span style=&quot;font-size: 18px;&quot;&gt;上下文架构&lt;/span&gt;" style="rounded=0;whiteSpace=wrap;html=1;" vertex="1" parent="1">
                    <mxGeometry x="210" y="350" width="120" height="60" as="geometry"/>
                </mxCell>
                <mxCell id="52" value="&lt;span style=&quot;font-size: 18px;&quot;&gt;业务架构&lt;/span&gt;" style="rounded=0;whiteSpace=wrap;html=1;" vertex="1" parent="1">
                    <mxGeometry x="210" y="450" width="120" height="60" as="geometry"/>
                </mxCell>
                <mxCell id="53" value="&lt;span style=&quot;font-size: 18px;&quot;&gt;应用架构&lt;/span&gt;" style="rounded=0;whiteSpace=wrap;html=1;" vertex="1" parent="1">
                    <mxGeometry x="210" y="560" width="120" height="60" as="geometry"/>
                </mxCell>
                <mxCell id="54" value="&lt;span style=&quot;font-size: 18px;&quot;&gt;代码实现&lt;/span&gt;" style="rounded=0;whiteSpace=wrap;html=1;" vertex="1" parent="1">
                    <mxGeometry x="210" y="760" width="120" height="60" as="geometry"/>
                </mxCell>
                <mxCell id="55" value="&lt;span style=&quot;font-size: 18px;&quot;&gt;技术架构&lt;/span&gt;" style="rounded=0;whiteSpace=wrap;html=1;" vertex="1" parent="1">
                    <mxGeometry x="210" y="660" width="120" height="60" as="geometry"/>
                </mxCell>
                <mxCell id="56" value="&lt;span style=&quot;font-size: 18px;&quot;&gt;运维架构&lt;/span&gt;" style="rounded=0;whiteSpace=wrap;html=1;" vertex="1" parent="1">
                    <mxGeometry x="210" y="870" width="120" height="60" as="geometry"/>
                </mxCell>
                <mxCell id="57" value="&lt;span style=&quot;font-size: 18px;&quot;&gt;上下文架构&lt;/span&gt;" style="rounded=0;whiteSpace=wrap;html=1;" vertex="1" parent="1">
                    <mxGeometry x="380" y="350" width="120" height="60" as="geometry"/>
                </mxCell>
                <mxCell id="58" value="&lt;span style=&quot;font-size: 18px;&quot;&gt;业务架构图&lt;/span&gt;" style="rounded=0;whiteSpace=wrap;html=1;" vertex="1" parent="1">
                    <mxGeometry x="380" y="450" width="120" height="60" as="geometry"/>
                </mxCell>
                <mxCell id="59" value="&lt;span style=&quot;font-size: 18px;&quot;&gt;应用架构图&lt;/span&gt;" style="rounded=0;whiteSpace=wrap;html=1;" vertex="1" parent="1">
                    <mxGeometry x="380" y="560" width="120" height="60" as="geometry"/>
                </mxCell>
                <mxCell id="60" value="&lt;span style=&quot;font-size: 18px;&quot;&gt;类图&lt;br&gt;ER图&lt;br&gt;流程图&lt;br&gt;&lt;/span&gt;" style="rounded=0;whiteSpace=wrap;html=1;" vertex="1" parent="1">
                    <mxGeometry x="380" y="760" width="120" height="60" as="geometry"/>
                </mxCell>
                <mxCell id="61" value="&lt;span style=&quot;font-size: 18px;&quot;&gt;技术架构图&lt;/span&gt;" style="rounded=0;whiteSpace=wrap;html=1;" vertex="1" parent="1">
                    <mxGeometry x="380" y="660" width="120" height="60" as="geometry"/>
                </mxCell>
                <mxCell id="62" value="&lt;span style=&quot;font-size: 18px;&quot;&gt;运维架构图&lt;/span&gt;" style="rounded=0;whiteSpace=wrap;html=1;" vertex="1" parent="1">
                    <mxGeometry x="380" y="870" width="120" height="60" as="geometry"/>
                </mxCell>
                <mxCell id="69" style="edgeStyle=none;html=1;" edge="1" parent="1" source="63" target="51">
                    <mxGeometry relative="1" as="geometry"/>
                </mxCell>
                <mxCell id="70" style="edgeStyle=none;html=1;entryX=0;entryY=0.5;entryDx=0;entryDy=0;" edge="1" parent="1" source="63" target="52">
                    <mxGeometry relative="1" as="geometry"/>
                </mxCell>
                <mxCell id="63" value="&lt;span style=&quot;font-size: 18px;&quot;&gt;上下文&lt;/span&gt;" style="rounded=0;whiteSpace=wrap;html=1;" vertex="1" parent="1">
                    <mxGeometry x="30" y="410" width="120" height="60" as="geometry"/>
                </mxCell>
                <mxCell id="71" style="edgeStyle=none;html=1;entryX=0;entryY=0.5;entryDx=0;entryDy=0;" edge="1" parent="1" source="65" target="53">
                    <mxGeometry relative="1" as="geometry"/>
                </mxCell>
                <mxCell id="65" value="&lt;span style=&quot;font-size: 18px;&quot;&gt;容器&lt;/span&gt;" style="rounded=0;whiteSpace=wrap;html=1;" vertex="1" parent="1">
                    <mxGeometry x="50" y="560" width="120" height="60" as="geometry"/>
                </mxCell>
                <mxCell id="73" style="edgeStyle=none;html=1;" edge="1" parent="1" source="66" target="54">
                    <mxGeometry relative="1" as="geometry"/>
                </mxCell>
                <mxCell id="66" value="&lt;span style=&quot;font-size: 18px;&quot;&gt;代码&lt;/span&gt;" style="rounded=0;whiteSpace=wrap;html=1;" vertex="1" parent="1">
                    <mxGeometry x="50" y="760" width="120" height="60" as="geometry"/>
                </mxCell>
                <mxCell id="72" style="edgeStyle=none;html=1;entryX=0;entryY=0.5;entryDx=0;entryDy=0;" edge="1" parent="1" source="67" target="55">
                    <mxGeometry relative="1" as="geometry"/>
                </mxCell>
                <mxCell id="67" value="&lt;span style=&quot;font-size: 18px;&quot;&gt;组件&lt;/span&gt;" style="rounded=0;whiteSpace=wrap;html=1;" vertex="1" parent="1">
                    <mxGeometry x="50" y="660" width="120" height="60" as="geometry"/>
                </mxCell>
                <mxCell id="68" value="&lt;span style=&quot;font-size: 18px;&quot;&gt;运维架构&lt;/span&gt;" style="rounded=0;whiteSpace=wrap;html=1;" vertex="1" parent="1">
                    <mxGeometry x="50" y="870" width="120" height="60" as="geometry"/>
                </mxCell>
            </root>
        </mxGraphModel>
    </diagram>
</mxfile>